<?xml version="1.0" encoding="utf-8"?>
<!-- Generator: Adobe Illustrator 19.2.0, SVG Export Plug-In . SVG Version: 6.00 Build 0)  -->
<svg version="1.1" id="Layer_1" xmlns="http://www.w3.org/2000/svg" xmlns:xlink="http://www.w3.org/1999/xlink" x="0px" y="0px"
	 viewBox="0 0 960 560" style="enable-background:new 0 0 960 560;" xml:space="preserve">
<style type="text/css">
	.st0{fill:url(#SVGID_1_);}
</style>
<linearGradient id="SVGID_1_" gradientUnits="userSpaceOnUse" x1="881.7369" y1="557.7185" x2="-56.633" y2="42.182">
	<stop  offset="0" style="stop-color:#00FFFF"/>
	<stop  offset="0.1506" style="stop-color:#00FAFD"/>
	<stop  offset="0.3218" style="stop-color:#00EDF6"/>
	<stop  offset="0.5031" style="stop-color:#00D6EC"/>
	<stop  offset="0.6914" style="stop-color:#00B6DD"/>
	<stop  offset="0.8833" style="stop-color:#008DC9"/>
	<stop  offset="1" style="stop-color:#0071BC"/>
</linearGradient>
<path class="st0" d="M960.9,300.7c-0.2-20.2,1.9-45.4-8.9-62.9c-13.7-22.3-44.8-21.7-57-44c-6-10.9-6.3-22.8-9.9-34.4
	c-3.4-10.9-9-21.1-16.5-29.8C841.2,98.1,793.9,95.1,755,93.9c-21.9-0.7-43.8-2.7-65.5-6.1c-40.1-5-79.1-17.2-116-33.6
	C556,46.4,539,37.3,521.9,28.7C507,21.2,496.1,8.3,479.7,3.9c-13.9-3.8-29.1-2.9-43-2.9c-16.5,0-33,0-49.5,0c-33,0-66,0-99,0
	C223.2,1,158.3,1,93.4,1C61.9,1,30,1-1,1c0,0,0,352.6,0,498.2C26,462.5,84.9,437,153.1,437c21.8,0,43.4,3,63.5,8.3
	c9.5,2.5,18.7,5.6,27.6,8.9c7.6,2.9,14.2,7.5,22.5,9.6c6.6,1.6,12.3,0.4,18.9,0.2c7.3-0.2,14.6-0.2,21.8,0c14.3,0.5,28.4,2,41.8,5.1
	c12.2,2.8,24.5,6.5,34.9,11.4c7.8,3.7,13.2,10.1,22.7,12.2c6.2,1.3,12.9,0.3,19.3-0.4c27.8-3,57.2,0.4,81.6,9.3
	c5.4,2,10.7,4.3,16.8,5.1c6.7,0.9,13.7-0.1,20.5-0.7c36.3-3.3,74.7,4.3,101.7,20.1c2.4,1.4,4.8,2.9,7.8,3.6c4.7,1.1,9.8,0,14.6-0.8
	c35.7-6.4,75.4-1.7,103.5,14c4,2.3,8.2,4.8,13.5,5.2c2.9,0.2,5.9-0.3,8.7-0.8c8.5-1.3,17.2-1.8,25.7-1.7c23,0.5,45.2,6.2,62.8,15.4
	c47.6,0,76.3,0,76.3,0c0,0,0.2-27,0.2-28.5c0.4-52.9,0.7-105.8,0.8-158.7C961.1,349.4,961.1,325.1,960.9,300.7z"/>
</svg>
